<svg xmlns="http://www.w3.org/2000/svg" viewBox="0 0 272.76 219.4"><defs><style>.cls-1{fill:#ffffff33;}.cls-2{fill:#231f20;}</style></defs><title>Asset 23</title><g id="Layer_2" data-name="Layer 2"><g id="Layer_1-2" data-name="Layer 1"><path class="cls-1" d="M65.85,198.08c-11.73-3.68-52.25-16.39-53.37-36.24-1-16.9,27.63-22.43,32.94-50.72C48.1,96.89,41.67,94,40.15,63.68c-1.16-23.37-1.75-35,4-40.84C58.61,8.12,89.37,38.92,139,36.67,187.32,34.49,199,3.37,227.91,13c31.4,10.42,53.59,59.19,41.5,87-8.42,19.35-30.76,22.24-32.94,42.16-1.81,16.63,13,22,11.2,33.6C243.4,203.85,148,223.83,65.85,198.08Z"/><path class="cls-2" d="M207.94,219.4c-8.06,0-13.87-5.35-20.49-11.44-7.55-7-16.11-14.82-30.3-16.45-12.51-1.44-19.85,3-29.15,8.67-8.15,5-17.38,10.57-32.33,13.71a121,121,0,0,1-53.85-1.62C22.54,207,8.82,197,3.19,184.09c-10.25-23.53,7.3-51,9.34-54l1.16.78-1.16-.78c7.83-11.75,15.8-15.71,23.51-19.53,6.5-3.22,12.64-6.27,18-14.09C65.33,80,61.09,60.25,57.35,42.83,54,27,51,13.31,60.2,5.26c13.18-11.54,41.94-1.77,57,7.09,12.07,7.13,17.52,14.94,21.89,21.22,4.24,6.08,7.58,10.87,15.3,12.89,11.61,3,21.22-3.27,31.39-9.94,10.87-7.13,22.11-14.51,37-11.82,18.75,3.38,30.54,20.47,35.9,30.35,13.53,25,5.57,51.12-6.48,90.68-12,39.33-21.46,70.4-41.32,73.44A18.75,18.75,0,0,1,207.94,219.4Zm-55.35-31a41.9,41.9,0,0,1,4.88.29c15.1,1.73,24,9.93,31.87,17.17,7.15,6.58,12.8,11.78,21.12,10.5,18.12-2.77,27.36-33.1,39.06-71.49,12.93-42.42,19.1-65.63,6.69-88.52C251.1,47,239.89,30.63,222.28,27.46c-13.81-2.49-24.58,4.57-35,11.4-10.7,7-20.82,13.66-33.63,10.31-8.72-2.28-12.5-7.71-16.88-14s-9.48-13.59-21-20.4c-15.42-9.1-42.27-17.41-53.7-7.4-8,7-5.18,19.9-2,34.88C64,60.21,68.32,80.58,56.35,98c-5.78,8.42-12.23,11.62-19.07,15-7.38,3.66-15,7.44-22.42,18.57-.78,1.17-18.92,28.82-9.11,51.37C17,208.68,61,218.3,95.1,211.14c14.48-3,23.49-8.51,31.45-13.35C134.72,192.82,141.93,188.44,152.59,188.44Z"/></g></g></svg>