<svg xmlns="http://www.w3.org/2000/svg" viewBox="0 0 309.77 231.21"><defs><style>.cls-1{fill:#ffffff33;}.cls-2{fill:#231f20;}</style></defs><title>Asset 25</title><g id="Layer_2" data-name="Layer 2"><g id="Layer_1-2" data-name="Layer 1"><path class="cls-1" d="M48.07,206.92C45.38,204.3,24.12,183,29,160.14,33.43,139,55.64,138,58,119.3c2.44-19.81-21.64-26.47-22.4-52C35.12,53,42.05,34.92,55.31,27.73,76.23,16.38,93,42.85,125.8,38.93,164.06,34.36,177.4-5.82,197.61.72c15.74,5.08,8,29.55,30.31,50.72,23,21.84,45.6,9.5,65.22,31,12.41,13.59,22.07,39,13.17,56-9.24,17.62-32.83,15.34-112,37.55-10.07,2.83-26.7,7.68-42.82,21.09-11.89,9.88-10.72,13.8-19.11,19.76C111.34,231.77,71.78,230,48.07,206.92Z"/><path class="cls-2" d="M66.72,231.21c-21.16,0-42-13.37-53.38-28.73-7.93-10.73-19-33.53-10-50.88,2.79-5.4,6.18-7.66,10.48-10.52a82,82,0,0,0,7-5.08c4.44-3.64,16.23-13.32,29.84-62.53a356.23,356.23,0,0,0,9.72-46.13C62.17,15.46,63,10,69.14,6.73c9.14-4.92,18.3,1,29.89,8.58,12.45,8.1,28,18.17,50.66,20.91,19.37,2.33,31.67-2.32,42.53-6.41,11.21-4.24,21.8-8.24,37.43-3.42,39.47,12.16,55.57,62.7,60.87,79.31,6.37,20,13,40.68,2.54,60.37-14.23,26.86-49.51,31.67-56.44,32.36-10.32,1-16.51-.47-25.06-2.55a212.77,212.77,0,0,0-37.12-6c-20-1.63-30-2.45-39.06,0-15.84,4.19-23.55,12.94-31,21.39-7.16,8.13-13.92,15.8-27,18.8A47.57,47.57,0,0,1,66.72,231.21Zm-45-94.12.89,1.08a86.33,86.33,0,0,1-7.23,5.24c-4.12,2.74-7.09,4.72-9.54,9.47C-2.5,169,8.05,190.6,15.59,200.82c10.9,14.75,30.89,27.59,51.08,27.6a44.74,44.74,0,0,0,10.07-1.13c12.21-2.8,18.68-10.14,25.54-17.92,7.73-8.77,15.72-17.84,32.39-22.25,9.53-2.53,19.71-1.7,40,0a214.79,214.79,0,0,1,37.55,6.08c8.59,2.09,14.27,3.47,24.12,2.48,6.68-.66,40.68-5.28,54.24-30.88,9.88-18.65,3.47-38.76-2.73-58.21-5.18-16.26-21-65.75-59-77.49-14.71-4.53-24.39-.87-35.61,3.37s-23.81,9-43.86,6.57C126,36.19,110.2,25.91,97.51,17.65c-11.24-7.3-19.36-12.59-27-8.45-4.92,2.64-5.58,7-7.31,18.55a361.58,361.58,0,0,1-9.79,46.47c-13.85,50.06-26.14,60.15-30.77,63.95Z"/></g></g></svg>