<svg xmlns="http://www.w3.org/2000/svg" viewBox="0 0 284.57 327.6"><defs><style>.cls-1{fill:#ffffff33;}.cls-2{fill:#ffffff66;}</style></defs><title>Asset 12</title><g id="Layer_2" data-name="Layer 2"><g id="Layer_1-2" data-name="Layer 1"><path class="cls-1" d="M115.23,278.87c-61.72-10.81-77.21,0-95.73-17.47C5.5,248.19-.87,227.66.09,211c.6-10.42,8.61-26.5,24.59-58.22,11.41-22.66,16-29.64,14.87-41.4-1.61-17.67-13.86-23.77-10.35-31,5.24-10.85,39.32-11.4,64.69,3.88,20.45,12.32,18.68,25,33.63,38.81,41.51,38.44,109.33-8.65,142.31,25.23,18,18.51,19,54.35,5.82,72.45-11.06,15.23-25.55,8.87-53,29.11-23.77,17.5-21.4,28.5-38.81,36.22S156.19,286,115.23,278.87Z"/><path class="cls-2" d="M53.78,216.12c-5.07-5.08-15.5-15.52-16.17-29.75-1.31-27.9,36.62-32.28,49.16-68.57C97.94,85.5,74.46,70,88.71,36.94c7.54-17.48,25-38.31,42.05-36.87,20.08,1.7,18.94,32.45,46.57,49.81,36.51,22.94,76.67-6.76,90.56,11,12.66,16.17-20.24,41.37-29.75,97.67-10.74,63.52,21.22,90.17-1.3,128.08-12.26,20.66-38.22,40.48-58.86,35.57-30.46-7.23-21.14-61.59-63.39-82.79C92,228.06,73.21,235.58,53.78,216.12Z"/><circle class="cls-2" cx="258.62" cy="269.16" r="9.27"/><ellipse class="cls-2" cx="150.38" cy="320.7" rx="5.39" ry="6.9"/><ellipse class="cls-2" cx="130.76" cy="305.6" rx="9.92" ry="6.47"/><ellipse class="cls-2" cx="64.35" cy="48.59" rx="9.49" ry="11.21"/><circle class="cls-2" cx="77.29" cy="27.45" r="3.45"/></g></g></svg>